#!OML:ASF H:\charlestonDancing\Project 1\Capture day 1\Session 1\femaleDancer.ASF
:FULLY-SPECIFIED
:DEGREES
175
root -13.6401 18.1207 0.901185 389.029 -97.5537 -377.856
lowerback 14.554 -1.30418 2.05823
upperback 2.70083 -1.6237 -1.40113
thorax -5.39215 -0.89596 -2.33032
lowerneck 3.17225 4.63548 6.82744
upperneck 11.1311 6.06673 -1.87554
head 3.36199 3.10141 -1.67891
rclavicle -1.93815e-015 -1.93815e-015
rhumerus -40.2569 -27.5804 -34.641
rradius 26.9721
rwrist 50.4074
rhand -35.5422 -49.796
rfingers 7.12502
rthumb -8.668 280.402
lclavicle -1.93815e-015 -1.93815e-015
lhumerus -29.0173 -8.84414 54.0672
lradius 51.476
lwrist -6.8726
lhand -37.6718 3.69514
lfingers 7.12502
lthumb -10.7227 33.4015
rfemur -27.1884 5.38076 23.4587
rtibia 47.0191
rfoot -7.61051 -3.54011
rtoes -16.1215
lfemur -14.5642 2.1179 -22.3734
ltibia 53.9011
lfoot 15.6624 -6.47671
ltoes -18.7493
176
root -13.5923 18.0915 0.925051 396.096 -97.6816 -384.361
lowerback 14.2611 -1.23372 1.33755
upperback 2.59339 -1.65796 -1.69895
thorax -5.33742 -0.901965 -2.23371
lowerneck 2.83593 4.49691 6.76143
upperneck 11.1747 5.86382 -1.8433
head 3.42447 3.00124 -1.65497
rclavicle -2.01518e-014 -1.67973e-014
rhumerus -40.9331 -26.8216 -36.2229
rradius 27.7365
rwrist 47.7683
rhand -35.5198 -49.7215
rfingers 7.12502
rthumb -8.64646 280.476
lclavicle -2.01518e-014 -1.67973e-014
lhumerus -28.3909 -6.07476 54.6127
lradius 50.1035
lwrist -5.35525
lhand -36.4358 3.93997
lfingers 7.12502
lthumb -9.53031 33.7044
rfemur -28.1043 -0.00326383 24.7522
rtibia 47.6419
rfoot -8.20595 -9.84616
rtoes -9.55913
lfemur -14.1953 7.68098 -24.8242
ltibia 52.0418
lfoot 11.8671 -1.17815
ltoes -13.795
177
root -13.5648 18.0622 0.947956 401.518 -97.5305 -389.031
lowerback 13.5667 -1.20287 1.02968
upperback 2.47019 -1.66229 -1.79348
thorax -5.08143 -0.895085 -2.16837
lowerneck 2.61566 4.3236 6.47934
upperneck 11.0628 5.62385 -1.75739
head 3.39762 2.87587 -1.57943
rclavicle -2.30342e-014 6.60959e-015
rhumerus -41.5054 -26.3586 -37.7114
rradius 28.4978
rwrist 45.4529
rhand -35.5931 -49.7935
rfingers 7.12502
rthumb -8.71718 280.407
lclavicle -2.30342e-014 6.60959e-015
lhumerus -27.7551 -3.46099 55.544
lradius 48.9931
lwrist -3.46932
lhand -35.3148 4.97986
lfingers 7.12502
lthumb -8.4486 34.7909
rfemur -29.3816 -5.51007 26.5612
rtibia 47.6271
rfoot -10.2663 -15.0402
rtoes -5.11113
lfemur -13.8811 12.7942 -26.8237
ltibia 50.1792
lfoot 9.21615 3.60119
ltoes -12.9788
178
root -13.5449 18.012 0.97098 405.046 -97.2285 -391.684
lowerback 12.7762 -1.20052 0.923706
upperback 2.17458 -1.65314 -1.67592
thorax -4.95095 -0.881768 -1.99718
lowerneck 2.58598 4.16845 6.12607
upperneck 11.044 5.42202 -1.76078
head 3.37159 2.7631 -1.52346
rclavicle 1.82676e-014 -2.24611e-014
rhumerus -41.8713 -25.7175 -39.2588
rradius 29.2445
rwrist 42.9733
rhand -35.6055 -49.5121
rfingers 7.12502
rthumb -8.72913 280.688
lclavicle 1.82676e-014 -2.24611e-014
lhumerus -27.6816 -0.94421 56.7439
lradius 48.3837
lwrist -1.69994
lhand -35.4308 5.50752
lfingers 7.12502
lthumb -8.56057 35.314
rfemur -30.6711 -10.0478 28.4255
rtibia 47.226
rfoot -11.5224 -18.1276
rtoes -5.2859
lfemur -13.64 17.0902 -28.4289
ltibia 48.3308
lfoot 4.24714 8.42443
ltoes -8.94115
179
root -13.5256 17.9305 0.999677 410.407 -97.1847 -396.065
lowerback 11.9104 -1.25544 0.388632
upperback 1.76696 -1.77555 -1.5867
thorax -4.88743 -0.92647 -1.5933
lowerneck 2.4709 4.11204 5.95977
upperneck 11.1802 5.35855 -1.9498
head 3.43801 2.72036 -1.55636
rclavicle 1.20886e-014 1.85118e-014
rhumerus -41.7378 -25.0201 -41.0062
rradius 29.8053
rwrist 40.6243
rhand -35.496 -48.1527
rfingers 7.12502
rthumb -8.62342 282.043
lclavicle 1.20886e-014 1.85118e-014
lhumerus -28.2947 1.49288 57.9829
lradius 48.3919
lwrist -0.04293
lhand -36.7754 4.461
lfingers 7.12502
lthumb -9.85797 34.2102
rfemur -31.9027 -13.172 29.3035
rtibia 46.6554
rfoot -14.1503 -18.9178
rtoes -3.502
lfemur -13.5953 20.1549 -30.412
ltibia 46.6291
lfoot 0.519673 10.1606
ltoes -17.3055
180
root -13.5178 17.8492 1.03353 409.239 -96.5825 -394.058
lowerback 11.1423 -1.37386 0.740188
upperback 1.42809 -1.85488 -1.24928
thorax -4.81858 -0.963004 -1.43882
lowerneck 2.26243 4.15189 5.92521
upperneck 11.2788 5.42478 -2.18082
head 3.52239 2.74563 -1.62154
rclavicle 1.56294e-014 4.77083e-015
rhumerus -41.0891 -24.7094 -42.6962
rradius 29.9742
rwrist 39.5689
rhand -35.2932 -45.7783
rfingers 7.12502
rthumb -8.4277 284.41
lclavicle 1.56294e-014 4.77083e-015
lhumerus -29.371 3.66274 59.1381
lradius 48.9111
lwrist 1.64346
lhand -37.9649 3.11534
lfingers 7.12502
lthumb -11.0054 32.8068
rfemur -32.4316 -14.4636 30.2902
rtibia 45.9575
rfoot -16.2036 -18.2485
rtoes -9.13184
lfemur -13.7315 21.1611 -30.8229
ltibia 45.2942
lfoot -2.94085 11.1652
ltoes -14.1916
181
root -13.4919 17.7126 1.08558 408.258 -95.9269 -392.51
lowerback 10.717 -1.54988 1.31854
upperback 1.1006 -1.99791 -1.01564
thorax -4.94082 -1.03965 -1.50496
lowerneck 2.09215 4.16829 5.9007
upperneck 11.3383 5.44666 -2.24989
head 3.57803 2.7538 -1.63644
rclavicle 2.88238e-014 -1.47101e-014
rhumerus -40.3345 -24.8451 -44.0919
rradius 29.7554
rwrist 40.3698
rhand -35.3532 -43.5019
rfingers 7.12502
rthumb -8.48568 286.689
lclavicle 2.88238e-014 -1.47101e-014
lhumerus -30.6724 5.35605 60.0761
lradius 49.6015
lwrist 2.54769
lhand -37.7937 2.86462
lfingers 7.12502
lthumb -10.8403 32.5648
rfemur -32.2831 -13.6174 30.0191
rtibia 45.4168
rfoot -19.014 -16.903
rtoes -10.2791
lfemur -13.4618 20.4154 -30.7929
ltibia 44.5916
lfoot -4.94911 9.90564
ltoes -23.6716
182
root -13.4576 17.5807 1.14117 401.444 -95.0287 -385.659
lowerback 10.9705 -1.73909 2.41727
upperback 0.880348 -2.08944 -0.71695
thorax -5.34519 -1.10739 -1.78795
lowerneck 2.16367 4.18481 5.87243
upperneck 11.1974 5.47215 -2.20641
head 3.51329 2.76707 -1.61777
rclavicle -4.34841e-015 -9.79014e-015
rhumerus -39.5384 -25.2274 -45.3062
rradius 29.3569
rwrist 42.9854
rhand -35.5093 -42.5771
rfingers 7.12502
rthumb -8.63632 287.62
lclavicle -4.34841e-015 -9.79014e-015
lhumerus -32.0441 6.62649 60.7392
lradius 50.0949
lwrist 2.47617
lhand -36.1301 3.71228
lfingers 7.12502
lthumb -9.23531 33.49
rfemur -31.2226 -11.9711 29.9129
rtibia 44.5521
rfoot -19.7009 -16.6779
rtoes -14.4081
lfemur -13.0116 17.9078 -29.503
ltibia 44.936
lfoot -7.58742 6.87664
ltoes -18.6631
183
root -13.4307 17.4725 1.18225 385.914 -94.1765 -370.715
lowerback 11.8818 -1.90036 3.71067
upperback 0.852452 -2.08613 -0.300338
thorax -5.91489 -1.14032 -2.05501
lowerneck 2.51515 4.22972 5.46216
upperneck 10.7043 5.51897 -1.71682
head 3.24111 2.78945 -1.38975
rclavicle -1.13804e-014 1.49089e-014
rhumerus -38.8851 -25.6687 -46.298
rradius 29.2177
rwrist 46.5566
rhand -34.4796 -41.1671
rfingers 7.12502
rthumb -7.64248 288.991
lclavicle -1.13804e-014 1.49089e-014
lhumerus -33.3956 7.14708 61.433
lradius 50.2747
lwrist 1.95258
lhand -34.2732 5.0541
lfingers 7.12502
lthumb -7.4433 34.9032
rfemur -29.8501 -10.1204 30.3216
rtibia 43.9094
rfoot -20.4145 -16.3526
rtoes -15.2244
lfemur -12.2071 15.6716 -27.3113
ltibia 46.0597
lfoot -8.68678 2.37631
ltoes -0.71637
184
root -13.4056 17.3952 1.20431 344.329 -94.0388 -330.107
lowerback 13.1714 -2.00978 6.33463
upperback 1.08696 -1.76729 0.457392
thorax -6.42141 -1.05883 -2.76029
lowerneck 2.47557 4.1056 5.18751
upperneck 10.54 5.33971 -1.48051
head 3.16374 2.69808 -1.26859
rclavicle 2.66247e-014 -2.44008e-014
rhumerus -38.5995 -26.5516 -46.9194
rradius 29.4312
rwrist 49.909
rhand -35.4635 -44.0689
rfingers 7.12502
rthumb -8.59207 286.126
lclavicle 2.66247e-014 -2.44008e-014
lhumerus -34.2884 6.64102 62.3953
lradius 49.9835
lwrist 0.965623
lhand -33.6933 5.61289
lfingers 7.12502
lthumb -6.88351 35.481
rfemur -28.138 -9.61389 33.3218
rtibia 43.1272
rfoot -21.4932 -16.8361
rtoes -12.268
lfemur -11.8115 14.489 -23.1701
ltibia 48.1116
lfoot -6.69758 0.25533
ltoes -27.9774
185
root -13.381 17.3564 1.20413 330.857 -94.6208 -317.176
lowerback 14.0131 -1.90616 7.08707
upperback 1.22474 -1.4497 0.736728
thorax -6.7232 -0.932627 -2.93203
lowerneck 2.6068 4.00815 4.88241
upperneck 10.2405 5.19091 -1.06832
head 3.00384 2.62493 -1.08839
rclavicle -1.71203e-014 2.6985e-014
rhumerus -38.2374 -27.0915 -47.6221
rradius 29.8504
rwrist 49.94
rhand -34.9864 -40.5997
rfingers 7.12502
rthumb -8.13167 289.577
lclavicle -1.71203e-014 2.6985e-014
lhumerus -35.0958 5.69632 63.3335
lradius 49.4267
lwrist -0.769722
lhand -33.4654 5.72451
lfingers 7.12502
lthumb -6.66354 35.5997
rfemur -27.3826 -8.63168 34.5961
rtibia 42.7297
rfoot -21.1949 -18.2371
rtoes -13.3552
lfemur -12.1598 13.8325 -20.9146
ltibia 50.2331
lfoot -2.80641 -2.75851
ltoes -17.596
186
root -13.3757 17.3796 1.1916 342.653 -94.2222 -329.044
lowerback 14.2295 -1.6452 5.78211
upperback 1.24677 -1.31355 0.357996
thorax -6.78446 -0.833044 -2.62467
lowerneck 2.59509 3.83972 5.11204
upperneck 10.3546 4.9798 -1.28711
head 3.05382 2.52272 -1.20386
rclavicle 1.66078e-014 -1.49337e-014
rhumerus -37.6664 -26.2905 -48.9797
rradius 29.98
rwrist 48.4874
rhand -36.2147 -43.7559
rfingers 7.12502
rthumb -9.31697 286.47
lclavicle 1.66078e-014 -1.49337e-014
lhumerus -35.9261 4.43887 64.1089
lradius 48.6936
lwrist -2.48248
lhand -32.4566 6.00435
lfingers 7.12502
lthumb -5.68962 35.908
rfemur -27.0018 -7.12605 33.3166
rtibia 42.214
rfoot -20.6937 -19.0659
rtoes -12.6749
lfemur -13.9916 13.4821 -21.0786
ltibia 52.6765
lfoot 3.06065 -3.50448
ltoes -24.8461
187
root -13.3986 17.4757 1.17996 357.009 -93.7242 -343.359
lowerback 14.1869 -1.47542 4.66952
upperback 1.27013 -1.29732 -0.142728
thorax -6.72088 -0.796369 -2.53377
lowerneck 2.48079 3.69516 5.42345
upperneck 10.6932 4.7767 -1.38009
head 3.19849 2.43063 -1.29039
rclavicle -3.04389e-014 1.83379e-014
rhumerus -37.3454 -25.6864 -49.8914
rradius 29.9846
rwrist 47.3144
rhand -36.7064 -42.6704
rfingers 7.12502
rthumb -9.79136 287.577
lclavicle -3.04389e-014 1.83379e-014
lhumerus -36.5772 2.46727 64.9738
lradius 47.3205
lwrist -3.21154
lhand -31.708 5.60603
lfingers 7.12502
lthumb -4.96681 35.5278
rfemur -26.882 -6.90589 31.9106
rtibia 41.7812
rfoot -19.9052 -18.5662
rtoes -14.2739
lfemur -15.9633 12.6169 -21.1597
ltibia 54.6472
lfoot 10.9446 -1.95595
ltoes -12.5138
